<svg width="31" height="31" viewBox="0 0 31 31" fill="none" xmlns="http://www.w3.org/2000/svg">
    <path d="M27.4801 13.1013H26.4955V13.0506H15.4951V17.9397H22.4028C21.395 20.7857 18.6871 22.8287 15.4951 22.8287C11.4452 22.8287 8.16153 19.5451 8.16153 15.4951C8.16153 11.4452 11.4452 8.16153 15.4951 8.16153C17.3646 8.16153 19.0654 8.86678 20.3604 10.0188L23.8176 6.56158C21.6346 4.52712 18.7146 3.27246 15.4951 3.27246C8.74516 3.27246 3.27246 8.74516 3.27246 15.4951C3.27246 22.2451 8.74516 27.7178 15.4951 27.7178C22.2451 27.7178 27.7178 22.2451 27.7178 15.4951C27.7178 14.6756 27.6335 13.8756 27.4801 13.1013Z" fill="#FFC107"/>
    <path d="M4.68176 9.80609L8.69752 12.7511C9.78412 10.0609 12.4157 8.16153 15.4952 8.16153C17.3646 8.16153 19.0654 8.86678 20.3604 10.0188L23.8176 6.56158C21.6346 4.52712 18.7146 3.27246 15.4952 3.27246C10.8004 3.27246 6.72906 5.92295 4.68176 9.80609Z" fill="#FF3D00"/>
    <path d="M15.4951 27.7178C18.6522 27.7178 21.5209 26.5096 23.6898 24.5448L19.9069 21.3437C18.6385 22.3083 17.0886 22.83 15.4951 22.8287C12.316 22.8287 9.61663 20.8016 8.59971 17.9727L4.61389 21.0436C6.63674 25.0019 10.7448 27.7178 15.4951 27.7178Z" fill="#4CAF50"/>
    <path d="M27.4801 13.101H26.4955V13.0503H15.4951V17.9394H22.4028C21.9207 19.2939 21.0524 20.4775 19.9051 21.344L19.9069 21.3428L23.6898 24.5439C23.4221 24.7871 27.7178 21.6062 27.7178 15.4948C27.7178 14.6753 27.6335 13.8753 27.4801 13.101Z" fill="#1976D2"/>
</svg>
